#define handclose_xbm_width 16
#define handclose_xbm_height 16
#define handclose_xbm_x_hot 8
#define handclose_xbm_y_hot 8
static char handclose_xbm_bits[] = {
   0x00, 0x00, 0x00, 0x00, 0x00, 0x00, 0x00, 0x00, 0xB0, 0x0D, 0x48, 0x32,
   0x08, 0x50, 0x10, 0x40, 0x18, 0x40, 0x04, 0x40, 0x04, 0x40, 0x04, 0x20,
   0x08, 0x20, 0x10, 0x10, 0x20, 0x10, 0x20, 0x10 };
